<?xml version="1.0" standalone="no"?>
<!DOCTYPE svg PUBLIC "-//W3C//DTD SVG 20010904//EN"
 "http://www.w3.org/TR/2001/REC-SVG-20010904/DTD/svg10.dtd">
<svg version="1.0" xmlns="http://www.w3.org/2000/svg"
 width="16.000000pt" height="16.000000pt" viewBox="0 0 16.000000 16.000000"
 preserveAspectRatio="xMidYMid meet">
<metadata>
Created by potrace 1.11, written by Peter Selinger 2001-2013
</metadata>
<g transform="translate(0.000000,16.000000) scale(0.003390,-0.003390)"
fill="#000000" stroke="none">
<path d="M2815 3125 c3 -203 8 -435 10 -515 12 -417 16 -518 21 -545 13 -78
94 -177 159 -193 35 -10 123 2 182 24 50 18 72 46 102 128 23 63 111 409 111
438 0 28 49 167 85 243 37 77 120 170 172 191 53 23 96 18 126 -14 64 -67 82
-176 81 -487 l0 -190 -32 -63 c-18 -34 -50 -80 -72 -102 -37 -37 -44 -40 -92
-40 -63 1 -114 18 -170 56 l-40 28 -24 -27 c-30 -35 -30 -48 -1 -74 47 -44
220 -113 281 -113 65 1 191 106 254 213 19 32 32 35 32 8 0 -30 66 -150 101
-183 40 -38 109 -70 125 -57 6 5 14 27 18 48 3 22 9 47 12 56 5 12 2 16 -12
15 -44 -5 -56 3 -103 71 -68 97 -87 153 -106 313 -22 194 -59 358 -97 433 -35
70 -126 186 -160 204 -51 27 -184 -1 -274 -58 -32 -20 -57 -50 -94 -113 -72
-120 -114 -264 -145 -490 -10 -73 -53 -226 -75 -270 -22 -43 -63 -70 -108 -70
-42 0 -95 39 -109 81 -27 83 -40 303 -49 819 -3 168 -7 343 -9 390 -2 47 -4
114 -5 150 l0 65 -51 0 -51 1 7 -371z"/>
<path d="M1992 3270 c-115 -6 -125 -12 -117 -69 9 -61 17 -82 29 -77 128 57
142 61 231 61 65 0 103 -5 138 -19 45 -18 48 -18 67 -1 25 23 46 83 32 97 -11
11 -223 16 -380 8z"/>
<path d="M2060 3011 c-46 -15 -86 -39 -119 -73 -45 -44 -111 -184 -161 -343
-155 -487 -182 -555 -224 -555 -23 0 -34 16 -61 91 -7 20 -16 63 -20 95 -3 32
-10 86 -15 119 -17 119 14 484 50 593 l17 53 -66 -3 -66 -3 -47 -140 c-29 -87
-64 -227 -93 -369 -48 -239 -69 -307 -104 -325 -17 -9 -24 -8 -40 8 -26 26
-59 117 -66 187 -3 33 -8 74 -10 91 -3 18 -7 115 -10 215 -3 137 -1 202 10
258 8 41 15 76 15 78 0 1 -22 2 -50 2 -50 0 -50 0 -50 -33 0 -32 -35 -146 -78
-254 -20 -48 -198 -348 -276 -465 -20 -29 -84 -104 -143 -167 l-107 -114 37
-33 c20 -19 41 -34 45 -34 5 0 48 41 96 90 92 95 234 301 321 465 54 101 54
100 59 94 2 -2 14 -65 26 -139 35 -222 65 -339 116 -446 22 -47 29 -54 54 -54
39 0 87 58 144 175 25 52 46 96 46 98 0 3 7 22 16 43 l16 39 33 -91 c17 -50
45 -115 61 -144 34 -63 108 -140 134 -140 27 0 120 96 153 157 15 29 43 113
62 187 47 180 136 451 180 542 53 110 117 174 173 174 11 0 37 -19 59 -43 33
-36 43 -57 57 -118 52 -240 35 -592 -35 -706 -26 -42 -95 -83 -140 -83 -45 1
-107 30 -147 70 l-33 33 -30 -29 -31 -29 54 -48 c101 -91 218 -139 287 -118
51 15 110 68 166 151 l48 70 33 -49 c70 -103 164 -161 286 -175 50 -6 58 -5
67 13 12 21 15 80 5 104 -4 12 -15 10 -65 -10 l-60 -24 -45 22 c-94 45 -137
162 -184 494 -16 109 -56 296 -81 375 -23 73 -71 155 -97 165 -28 11 -145 15
-172 6z"/>
<path d="M710 1555 c0 -8 3 -16 8 -16 4 -1 769 -2 1700 -3 1606 -1 1692 0
1692 16 0 17 -87 18 -1700 18 -1504 0 -1700 -2 -1700 -15z"/>
<path d="M1866 1385 c-3 -9 0 -15 9 -15 8 0 15 7 15 15 0 8 -4 15 -9 15 -5 0
-11 -7 -15 -15z"/>
<path d="M2652 1374 c-60 -42 -64 -134 -6 -134 24 0 32 -14 14 -25 -19 -12
-11 -26 9 -15 27 14 61 72 68 115 10 61 -36 93 -85 59z m52 -62 c-5 -33 -12
-44 -30 -48 -42 -11 -46 0 -29 69 9 34 35 51 53 33 9 -9 11 -26 6 -54z"/>
<path d="M2830 1377 c-37 -18 -66 -82 -51 -113 7 -16 19 -24 36 -24 28 0 29
-3 14 -32 -22 -41 15 -13 49 36 35 53 42 105 16 130 -19 19 -31 20 -64 3z m47
-46 c-7 -54 -17 -71 -42 -71 -29 0 -35 15 -21 60 20 67 70 76 63 11z"/>
<path d="M3020 1383 c-60 -22 -117 -148 -94 -207 10 -27 66 -20 96 12 55 58
79 139 54 177 -16 25 -27 28 -56 18z m35 -55 c-6 -41 -35 -119 -53 -140 -8
-10 -24 -18 -35 -18 -18 0 -19 5 -14 49 6 53 48 146 69 154 22 8 37 -13 33
-45z"/>
<path d="M2510 1359 c-14 -11 -19 -18 -12 -14 6 3 12 2 12 -3 0 -21 -63 -157
-79 -169 -14 -10 -10 -12 24 -13 25 0 35 3 27 9 -10 6 -4 28 27 102 52 120 52
130 1 88z"/>
<path d="M1743 1306 c19 -19 40 -21 35 -3 -3 6 -15 14 -28 15 -21 4 -22 2 -7
-12z"/>
<path d="M1811 1304 c-16 -12 -20 -19 -11 -24 9 -6 7 -21 -9 -64 -17 -45 -18
-56 -7 -56 22 0 46 11 46 22 0 5 -4 6 -10 3 -16 -10 -12 11 15 71 14 31 25 58
25 60 0 10 -28 2 -49 -12z"/>
<path d="M1914 1304 c-10 -8 -13 -13 -6 -9 17 9 16 3 -13 -65 -28 -67 -29 -70
-15 -70 6 0 21 24 34 53 15 34 34 58 55 70 36 21 39 12 12 -41 -32 -65 -35
-82 -12 -82 22 0 37 16 20 22 -7 2 -2 22 15 56 38 76 30 105 -20 67 -25 -19
-34 -19 -34 0 0 19 -11 19 -36 -1z"/>
<path d="M2136 1311 c-3 -5 1 -12 10 -15 25 -10 34 -7 34 9 0 16 -35 21 -44 6z"/>
<path d="M2236 1299 c-30 -24 -66 -88 -66 -119 0 -16 6 -20 29 -20 17 0 33 5
36 10 3 6 -3 10 -14 10 -21 0 -27 16 -13 36 4 6 24 19 45 29 39 18 63 48 52
65 -10 16 -41 11 -69 -11z m44 -8 c0 -12 -51 -53 -58 -46 -8 8 28 55 43 55 8
0 15 -4 15 -9z"/>
<path d="M1702 1298 c-17 -17 -15 -44 4 -73 13 -20 14 -28 4 -40 -15 -18 1
-20 18 -3 16 16 15 49 -3 72 -8 11 -13 28 -9 38 6 21 3 23 -14 6z"/>
<path d="M2061 1239 c-22 -36 -25 -48 -15 -72 6 -16 50 -12 61 6 4 6 0 8 -11
4 -23 -9 -31 15 -17 54 15 44 6 48 -18 8z"/>
<path d="M1635 1191 c-8 -13 24 -43 38 -34 8 5 8 8 -1 11 -7 2 -12 10 -12 18
0 16 -16 19 -25 5z"/>
</g>
</svg>
